o Tool
v 0.000000 0.000000 0.000000
v -0.004330 0.022000 0.002500
v -0.004330 0.022000 -0.002500
v 0.004330 0.022000 -0.002500
v 0.004330 0.022000 0.002500
v 0.000000 0.022000 0.005000
v 0.000000 0.022000 -0.005000
v -0.004330 0.029672 0.002500
v -0.004330 0.029672 -0.002500
v 0.004330 0.029672 -0.002500
v 0.004330 0.029672 0.002500
v 0.000000 0.029672 0.005000
v 0.000000 0.029672 -0.005000
v -0.004330 0.111810 -0.002500
v 0.004330 0.111810 -0.002500
v 0.004330 0.111810 0.002500
v -0.004330 0.111810 0.002500
v 0.000000 0.111810 -0.005000
v 0.000000 0.111810 0.005000
v 0.004330 0.120955 0.002500
v -0.004330 0.120955 0.002500
v -0.004330 0.120955 -0.002500
v 0.004330 0.120955 -0.002500
v 0.000000 0.120955 -0.005000
v 0.000000 0.120955 0.005000
v 0.000000 0.129225 -0.005000
v -0.004330 0.129225 0.002500
v 0.004330 0.129225 -0.002500
v 0.004330 0.129225 0.002500
v -0.004330 0.129225 -0.002500
v 0.000000 0.129225 0.005000
vt 1.000000 0.562500
vt 0.000000 0.562500
vt 0.000000 0.250000
vt 1.000000 0.250000
vt 0.000000 0.250000
vt 1.000000 0.250000
vt 1.000000 0.562500
vt 0.000000 0.562500
vt 1.000000 0.562500
vt 0.000000 0.250000
vt 1.000000 0.250000
vt 0.000000 0.562500
vt 0.000000 0.250000
vt 1.000000 0.250000
vt 1.000000 0.562500
vt 0.000000 0.562500
vt 0.000000 0.250000
vt 1.000000 0.250000
vt 1.000000 0.562500
vt 0.000000 0.562500
vt 0.000000 0.250000
vt 1.000000 0.250000
vt 1.000000 0.562500
vt 0.000000 0.562500
vt 0.062500 0.531250
vt 0.062500 0.531250
vt 0.937500 0.531250
vt 0.937500 0.531250
vt 1.000000 0.562500
vt 1.000000 0.937500
vt 0.000000 0.562500
vt 0.000000 0.937500
vt 0.937500 0.968750
vt 0.937500 0.968750
vt 0.062500 0.968750
vt 0.062500 0.968750
vt 0.937500 0.531250
vt 0.937500 0.531250
vt 1.000000 0.562500
vt 1.000000 0.937500
vt 0.000000 0.562500
vt 0.000000 0.937500
vt 0.937500 0.968750
vt 0.937500 0.968750
vt 0.062500 0.968750
vt 0.062500 0.968750
vt 0.937500 0.531250
vt 0.937500 0.531250
vt 0.062500 0.531250
vt 0.062500 0.531250
vt 1.000000 0.562500
vt 1.000000 0.937500
vt 0.000000 0.562500
vt 0.000000 0.937500
vt 0.937500 0.968750
vt 0.937500 0.968750
vt 0.062500 0.968750
vt 0.062500 0.968750
vt 0.062500 0.531250
vt 0.062500 0.531250
vt 1.000000 0.562500
vt 1.000000 0.937500
vt 0.000000 0.562500
vt 0.000000 0.937500
vt 0.937500 0.968750
vt 0.937500 0.968750
vt 0.062500 0.968750
vt 0.062500 0.968750
vt 0.937500 0.531250
vt 0.937500 0.531250
vt 1.000000 0.562500
vt 1.000000 0.937500
vt 0.000000 0.562500
vt 0.000000 0.937500
vt 0.937500 0.968750
vt 0.937500 0.968750
vt 0.062500 0.968750
vt 0.062500 0.968750
vt 0.062500 0.531250
vt 0.062500 0.531250
vt 1.000000 0.562500
vt 1.000000 0.937500
vt 0.000000 0.562500
vt 0.000000 0.937500
vt 0.937500 0.968750
vt 0.937500 0.968750
vt 0.062500 0.968750
vt 0.062500 0.968750
vt 0.500000 0.000000
vn 1.0000 0.0000 0.0000
vn 0.5000 0.0000 -0.8660
vn -0.5000 0.0000 -0.8660
vn -1.0000 0.0000 0.0000
vn -0.5000 0.0000 0.8660
vn 0.5000 0.0000 0.8660
vn 0.0000 1.0000 0.0000
vn 0.0000 1.0000 -0.0002
vn -0.9815 -0.1917 0.0000
vn -0.4907 -0.1917 0.8500
vn -0.4907 -0.1917 -0.8500
vn 0.4907 -0.1917 -0.8500
vn 0.9815 -0.1917 0.0000
vn 0.4907 -0.1917 0.8500
s off
f 10/1/1 11/2/1 5/3/1
f 5/3/1 4/4/1 10/1/1
f 4/5/2 7/6/2 13/7/2
f 10/8/2 4/5/2 13/7/2
f 9/9/3 7/10/3 3/11/3
f 7/10/3 9/9/3 13/12/3
f 3/13/4 2/14/4 8/15/4
f 9/16/4 3/13/4 8/15/4
f 2/17/5 6/18/5 12/19/5
f 8/20/5 2/17/5 12/19/5
f 6/21/6 5/22/6 11/23/6
f 12/24/6 6/21/6 11/23/6
f 10/25/1 15/26/1 11/27/1
f 11/27/1 15/26/1 16/28/1
f 15/29/1 23/30/1 16/31/1
f 16/31/1 23/30/1 20/32/1
f 23/33/1 28/34/1 20/35/1
f 20/35/1 28/34/1 29/36/1
f 13/37/2 18/38/2 10/25/2
f 10/25/2 18/38/2 15/26/2
f 18/39/2 24/40/2 15/41/2
f 15/41/2 24/40/2 23/42/2
f 24/43/2 26/44/2 23/45/2
f 23/45/2 26/44/2 28/46/2
f 9/47/3 14/48/3 13/49/3
f 13/49/3 14/48/3 18/50/3
f 14/51/3 22/52/3 18/53/3
f 18/53/3 22/52/3 24/54/3
f 22/55/3 30/56/3 24/57/3
f 24/57/3 30/56/3 26/58/3
f 8/59/4 17/60/4 9/47/4
f 9/47/4 17/60/4 14/48/4
f 17/61/4 21/62/4 14/63/4
f 14/63/4 21/62/4 22/64/4
f 21/65/4 27/66/4 22/67/4
f 22/67/4 27/66/4 30/68/4
f 12/69/5 19/70/5 8/59/5
f 8/59/5 19/70/5 17/60/5
f 19/71/5 25/72/5 17/73/5
f 17/73/5 25/72/5 21/74/5
f 25/75/5 31/76/5 21/77/5
f 21/77/5 31/76/5 27/78/5
f 11/27/6 16/28/6 12/79/6
f 12/79/6 16/28/6 19/80/6
f 16/81/6 20/82/6 19/83/6
f 19/83/6 20/82/6 25/84/6
f 20/85/6 29/86/6 25/87/6
f 25/87/6 29/86/6 31/88/6
f 27/78/7 29/36/7 28/34/7
f 27/78/7 28/34/7 30/56/7
f 28/34/8 26/58/8 30/56/8
f 31/88/7 29/86/7 27/66/7
f 3/13/9 1/89/9 2/14/9
f 6/18/10 2/17/10 1/89/10
f 7/10/11 1/89/11 3/11/11
f 7/6/12 4/5/12 1/89/12
f 4/4/13 5/3/13 1/89/13
f 6/21/14 1/89/14 5/22/14
