# Blender v2.90.1 OBJ File: 'tool.blend'
# www.blender.org
o InnerShaft_Tool.004
v 0.003849 0.054105 -0.002222
v 0.003849 0.054105 0.002222
v 0.000000 0.054105 -0.004444
v -0.003849 0.054105 -0.002222
v -0.003849 0.054105 0.002222
v 0.000000 0.054105 0.004444
v 0.003849 0.114307 -0.002222
v 0.003849 0.114307 0.002222
v 0.000000 0.114307 -0.004444
v -0.003849 0.114307 -0.002222
v -0.003849 0.114307 0.002222
v 0.000000 0.114307 0.004444
vt 0.675316 0.676460
vt 0.699306 0.782174
vt 0.669127 0.678735
vt 0.790777 0.782937
vt 0.682358 0.678733
vt 0.697342 0.783421
vt 0.775687 0.784739
vt 0.683458 0.680106
vt 0.683049 0.786167
vt 0.755126 0.784009
vt 0.685380 0.781726
vt 0.671759 0.680111
vt 0.781252 0.781935
vt 0.678248 0.680570
vt 0.669127 0.783398
vt 0.747949 0.782571
vt 0.670085 0.782188
vt 0.762184 0.781771
vn -1.0000 -0.0000 0.0000
vn -0.5018 0.0598 -0.8629
vn -0.5000 0.0000 -0.8660
vn -0.5000 -0.0000 0.8660
vn 0.5000 -0.0000 0.8660
vn 1.0000 -0.0000 0.0000
vn 0.5000 0.0000 -0.8660
s 1
f 7/1/1 2/2/2 8/3/3
f 1/4/4 2/2/2 7/1/1
f 9/5/4 1/6/4 7/1/1
f 3/7/5 1/6/4 9/5/4
f 10/8/5 3/9/5 9/5/4
f 4/10/6 3/9/5 10/8/5
f 8/3/3 6/11/3 12/12/7
f 2/13/2 6/11/3 8/3/3
f 11/14/6 4/15/6 10/8/5
f 5/16/7 4/15/6 11/14/6
f 12/12/7 5/17/7 11/14/6
f 6/18/3 5/17/7 12/12/7
